<svg xmlns="http://www.w3.org/2000/svg" viewBox="8 10 108 108"><ellipse cx="60" cy="116" rx="32" ry="4" fill="rgba(0,0,0,.14)"></ellipse><ellipse cx="45" cy="109" rx="8" ry="5" fill="#e3b777" stroke="#3b2a1d" stroke-width="3"></ellipse><ellipse cx="75" cy="109" rx="8" ry="5" fill="#e3b777" stroke="#3b2a1d" stroke-width="3"></ellipse><rect x="14" y="40" width="92" height="66" rx="11" fill="#f8e4bb" stroke="#3b2a1d" stroke-width="3"></rect><path d="M24 43.5v4.5M24 98v4.5M30 43.5v4.5M30 98v4.5M36 43.5v4.5M36 98v4.5M42 43.5v4.5M42 98v4.5M48 43.5v4.5M48 98v4.5M54 43.5v4.5M54 98v4.5M60 43.5v4.5M60 98v4.5M66 43.5v4.5M66 98v4.5M72 43.5v4.5M72 98v4.5M78 43.5v4.5M78 98v4.5M84 43.5v4.5M84 98v4.5M90 43.5v4.5M90 98v4.5M96 43.5v4.5M96 98v4.5M17.5 52h4.5M98 52h4.5M17.5 58h4.5M98 58h4.5M17.5 64h4.5M98 64h4.5M17.5 70h4.5M98 70h4.5M17.5 76h4.5M98 76h4.5M17.5 82h4.5M98 82h4.5M17.5 88h4.5M98 88h4.5M17.5 94h4.5M98 94h4.5" fill="none" stroke="#d2a86a" stroke-width="2.2" stroke-linecap="round"></path><rect x="24" y="50" width="72" height="46" rx="17" fill="#f0cc8c" stroke="#c9985a" stroke-width="2"></rect><path d="M30 60 C33 55 38 53 44 53" fill="none" stroke="#fff6df" stroke-width="3" stroke-linecap="round"></path><g fill="#7ea45b" opacity=".75"><circle cx="31" cy="88" r="1.6"></circle><circle cx="36" cy="91" r="1.1"></circle><circle cx="88" cy="86" r="1.5"></circle><circle cx="84" cy="91" r="1.1"></circle><circle cx="89" cy="60" r="1.2"></circle></g><g fill="none" stroke="#3b2a1d" stroke-width="2.6" stroke-linecap="round"><path d="M43 59 Q48 56 52 59"></path><path d="M68 59 Q72 56 77 59"></path></g><g><ellipse cx="48" cy="69" rx="4.6" ry="5.6" fill="#3b2a1d"></ellipse><circle cx="49.6" cy="66.8" r="1.8" fill="#fff"></circle><g><ellipse cx="72" cy="69" rx="4.6" ry="5.6" fill="#3b2a1d"></ellipse><circle cx="73.6" cy="66.8" r="1.8" fill="#fff"></circle></g></g><ellipse cx="37" cy="80" rx="6" ry="3.6" fill="#f39a8c" opacity=".9"></ellipse><ellipse cx="83" cy="80" rx="6" ry="3.6" fill="#f39a8c" opacity=".9"></ellipse><path d="M54 80 Q60 87 66 80" fill="none" stroke="#3b2a1d" stroke-width="3" stroke-linecap="round"></path><g fill="none" stroke="#3b2a1d" stroke-width="5" stroke-linecap="round"><g><path d="M15 78 Q6 84 9 95"></path><path d="M105 68 Q114 58 111 43"></path></g></g><g fill="#f8e4bb" stroke="#3b2a1d" stroke-width="3"><circle cx="111" cy="41" r="5.5"></circle></g><path d="M118 31 l6 -4 M120 42 l7 0" style="stroke: #e8674f;" stroke-width="3" stroke-linecap="round"></path></svg>